####
#
# OBJ File Generated by Meshlab
#
####
# Object grid1.obj
#
# Vertices: 36
# Faces: 42
#
####

mtllib material.mtl

usemtl red

vn 0.745502 0.620612 0.243039
v -1.086174 2.135202 1.891491
vn 0.745502 0.620612 0.243039
v -0.712714 1.749784 1.730117
vn 0.745502 0.620612 0.243039
v -0.719193 1.960852 1.211012
vn 0.745502 0.620612 0.243039
v -1.092652 2.346273 1.372386
vn 0.745502 0.620612 0.243039
v -0.339252 1.364362 1.568744
vn 0.745502 0.620612 0.243039
v -0.345731 1.575433 1.049639
vn 0.745502 0.620612 0.243039
v 0.034210 0.978944 1.407370
vn 0.745502 0.620612 0.243039
v 0.027731 1.190015 0.888265
vn 0.745502 0.620612 0.243039
v 0.407669 0.593525 1.245993
vn 0.745502 0.620612 0.243039
v 0.401191 0.804597 0.726888
vn 0.745502 0.620612 0.243039
v 0.781131 0.208107 1.084620
vn 0.745502 0.620612 0.243039
v 0.774653 0.419175 0.565514
vn 0.745502 0.620612 0.243039
v -0.725671 2.171923 0.691907
vn 0.745502 0.620612 0.243039
v -1.099133 2.557342 0.853281
vn 0.745502 0.620612 0.243039
v 0.021250 1.401086 0.369157
vn 0.745502 0.620612 0.243039
v -0.352209 1.786505 0.530533
vn 0.745502 0.620612 0.243039
v 0.768175 0.630246 0.046409
vn 0.745502 0.620612 0.243039
v 0.394712 1.015665 0.207783
vn 0.745502 0.620612 0.243039
v -0.732149 2.382995 0.172802
vn 0.745502 0.620612 0.243039
v -1.105612 2.768413 0.334176
vn 0.745502 0.620612 0.243039
v -0.358687 1.997573 0.011428
vn 0.745502 0.620612 0.243039
v 0.014772 1.612154 -0.149948
vn 0.745502 0.620612 0.243039
v 0.388234 1.226736 -0.311322
vn 0.745502 0.620612 0.243039
v 0.761696 0.841318 -0.472696
vn 0.745502 0.620612 0.243039
v -0.738628 2.594063 -0.346303
vn 0.745502 0.620612 0.243039
v -1.112090 2.979484 -0.184929
vn 0.745502 0.620612 0.243039
v 0.008294 1.823226 -0.669053
vn 0.745502 0.620612 0.243039
v -0.365169 2.208644 -0.507679
vn 0.745502 0.620612 0.243039
v 0.755215 1.052386 -0.991801
vn 0.745502 0.620612 0.243039
v 0.381756 1.437807 -0.830427
vn 0.745502 0.620612 0.243039
v -0.745106 2.805134 -0.865408
vn 0.745502 0.620612 0.243039
v -1.118568 3.190553 -0.704034
vn 0.745502 0.620612 0.243039
v -0.371647 2.419715 -1.026785
vn 0.745502 0.620612 0.243039
v 0.001815 2.034297 -1.188158
vn 0.745502 0.620612 0.243039
v 0.375277 1.648876 -1.349532
vn 0.745502 0.620612 0.243039
v 0.748737 1.263457 -1.510906
# 36 vertices, 0 vertices normals

f 2//2 3//3 4//4
f 4//4 1//1 2//2
f 5//5 6//6 3//3
f 3//3 2//2 5//5
f 7//7 8//8 6//6
f 6//6 5//5 7//7
f 9//9 10//10 8//8
f 8//8 7//7 9//9
f 11//11 12//12 10//10
f 10//10 9//9 11//11
f 3//3 13//13 14//14
f 14//14 4//4 3//3
f 8//8 15//15 16//16
f 16//16 6//6 8//8
f 12//12 17//17 18//18
f 18//18 10//10 12//12
f 13//13 19//19 20//20
f 20//20 14//14 13//13
f 16//16 21//21 19//19
f 19//19 13//13 16//16
f 15//15 22//22 21//21
f 21//21 16//16 15//15
f 18//18 23//23 22//22
f 22//22 15//15 18//18
f 17//17 24//24 23//23
f 23//23 18//18 17//17
f 19//19 25//25 26//26
f 26//26 20//20 19//19
f 22//22 27//27 28//28
f 28//28 21//21 22//22
f 24//24 29//29 30//30
f 30//30 23//23 24//24
f 25//25 31//31 32//32
f 32//32 26//26 25//25
f 28//28 33//33 31//31
f 31//31 25//25 28//28
f 27//27 34//34 33//33
f 33//33 28//28 27//27
f 30//30 35//35 34//34
f 34//34 27//27 30//30
f 29//29 36//36 35//35
f 35//35 30//30 29//29
# 42 faces, 0 coords texture

# End of File
