#I think this works
v -0.5 -1.11022e-16 0.5
v -0.3 -1.11022e-16 0.5
v -0.3 -6.66134e-17 0.3
v -0.5 -6.66134e-17 0.3
v -0.1 -1.11022e-16 0.5
v -0.1 -6.66134e-17 0.3
v 0.1 -1.11022e-16 0.5
v 0.1 -6.66134e-17 0.3
v 0.3 -1.11022e-16 0.5
v 0.3 -6.66134e-17 0.3
v 0.5 -1.11022e-16 0.5
v 0.5 -6.66134e-17 0.3
v -0.3 -2.22045e-17 0.1
v -0.5 -2.22045e-17 0.1
v 0.1 -2.22045e-17 0.1
v -0.1 -2.22045e-17 0.1
v 0.5 -2.22045e-17 0.1
v 0.3 -2.22045e-17 0.1
v -0.3 2.22045e-17 -0.1
v -0.5 2.22045e-17 -0.1
v -0.1 2.22045e-17 -0.1
v 0.1 2.22045e-17 -0.1
v 0.3 2.22045e-17 -0.1
v 0.5 2.22045e-17 -0.1
v -0.3 6.66134e-17 -0.3
v -0.5 6.66134e-17 -0.3
v 0.1 6.66134e-17 -0.3
v -0.1 6.66134e-17 -0.3
v 0.5 6.66134e-17 -0.3
v 0.3 6.66134e-17 -0.3
v -0.3 1.11022e-16 -0.5
v -0.5 1.11022e-16 -0.5
v -0.1 1.11022e-16 -0.5
v 0.1 1.11022e-16 -0.5
v 0.3 1.11022e-16 -0.5
v 0.5 1.11022e-16 -0.5
vn 0.0 1.0 2.22045e-16
vn 0.0 1.0 2.22045e-16
vn 0.0 1.0 2.22045e-16
vn 0.0 1.0 2.22045e-16
vn 0.0 1.0 2.22045e-16
vn 0.0 1.0 2.22045e-16
vn 0.0 1.0 2.22045e-16
vn 0.0 1.0 2.22045e-16
vn 0.0 1.0 2.22045e-16
vn 0.0 1.0 2.22045e-16
vn 0.0 1.0 2.22045e-16
vn 0.0 1.0 2.22045e-16
vn 0.0 1.0 2.22045e-16
vn 0.0 1.0 2.22045e-16
vn 0.0 1.0 2.22045e-16
vn 0.0 1.0 2.22045e-16
vn 0.0 1.0 2.22045e-16
vn 0.0 1.0 2.22045e-16
vn 0.0 1.0 2.22045e-16
vn 0.0 1.0 2.22045e-16
vn 0.0 1.0 2.22045e-16
vn 0.0 1.0 2.22045e-16
vn 0.0 1.0 2.22045e-16
vn 0.0 1.0 2.22045e-16
vn 0.0 1.0 2.22045e-16
vn 0.0 1.0 2.22045e-16
vn 0.0 1.0 2.22045e-16
vn 0.0 1.0 2.22045e-16
vn 0.0 1.0 2.22045e-16
vn 0.0 1.0 2.22045e-16
vn 0.0 1.0 2.22045e-16
vn 0.0 1.0 2.22045e-16
vn 0.0 1.0 2.22045e-16
vn 0.0 1.0 2.22045e-16
vn 0.0 1.0 2.22045e-16
vn 0.0 1.0 2.22045e-16
f 2//2 3//3 4//4
f 4//4 1//1 2//2
f 5//5 6//6 3//3
f 3//3 2//2 5//5
f 7//7 8//8 6//6
f 6//6 5//5 7//7
f 9//9 10//10 8//8
f 8//8 7//7 9//9
f 11//11 12//12 10//10
f 10//10 9//9 11//11
f 3//3 13//13 14//14
f 14//14 4//4 3//3
f 8//8 15//15 16//16
f 16//16 6//6 8//8
f 12//12 17//17 18//18
f 18//18 10//10 12//12
f 13//13 19//19 20//20
f 20//20 14//14 13//13
f 16//16 21//21 19//19
f 19//19 13//13 16//16
f 15//15 22//22 21//21
f 21//21 16//16 15//15
f 18//18 23//23 22//22
f 22//22 15//15 18//18
f 17//17 24//24 23//23
f 23//23 18//18 17//17
f 19//19 25//25 26//26
f 26//26 20//20 19//19
f 22//22 27//27 28//28
f 28//28 21//21 22//22
f 24//24 29//29 30//30
f 30//30 23//23 24//24
f 25//25 31//31 32//32
f 32//32 26//26 25//25
f 28//28 33//33 31//31
f 31//31 25//25 28//28
f 27//27 34//34 33//33
f 33//33 28//28 27//27
f 30//30 35//35 34//34
f 34//34 27//27 30//30
f 29//29 36//36 35//35
f 35//35 30//30 29//29
