####
#
# OBJ File Generated by Meshlab
#
####
# Object transf_grid1.obj
#
# Vertices: 36
# Faces: 42
#
####

mtllib material.mtl

usemtl red

vn 0.745502 0.620612 0.243039
v -0.327421 1.054423 0.607123
vn 0.745502 0.620612 0.243039
v -0.194141 0.916875 0.549532
vn 0.745502 0.620612 0.243039
v -0.196453 0.992201 0.364274
vn 0.745502 0.620612 0.243039
v -0.329733 1.129750 0.421865
vn 0.745502 0.620612 0.243039
v -0.060860 0.779326 0.491941
vn 0.745502 0.620612 0.243039
v -0.063172 0.854653 0.306683
vn 0.745502 0.620612 0.243039
v 0.072421 0.641778 0.434350
vn 0.745502 0.620612 0.243039
v 0.070109 0.717105 0.249092
vn 0.745502 0.620612 0.243039
v 0.205701 0.504230 0.376758
vn 0.745502 0.620612 0.243039
v 0.203389 0.579557 0.191500
vn 0.745502 0.620612 0.243039
v 0.338982 0.366682 0.319167
vn 0.745502 0.620612 0.243039
v 0.336670 0.442008 0.133909
vn 0.745502 0.620612 0.243039
v -0.198765 1.067528 0.179016
vn 0.745502 0.620612 0.243039
v -0.332046 1.205076 0.236607
vn 0.745502 0.620612 0.243039
v 0.067796 0.792432 0.063833
vn 0.745502 0.620612 0.243039
v -0.065484 0.929980 0.121425
vn 0.745502 0.620612 0.243039
v 0.334358 0.517335 -0.051349
vn 0.745502 0.620612 0.243039
v 0.201077 0.654883 0.006242
vn 0.745502 0.620612 0.243039
v -0.201077 1.142855 -0.006242
vn 0.745502 0.620612 0.243039
v -0.334358 1.280403 0.051349
vn 0.745502 0.620612 0.243039
v -0.067796 1.005306 -0.063833
vn 0.745502 0.620612 0.243039
v 0.065484 0.867758 -0.121425
vn 0.745502 0.620612 0.243039
v 0.198765 0.730210 -0.179016
vn 0.745502 0.620612 0.243039
v 0.332046 0.592662 -0.236607
vn 0.745502 0.620612 0.243039
v -0.203389 1.218181 -0.191500
vn 0.745502 0.620612 0.243039
v -0.336670 1.355730 -0.133909
vn 0.745502 0.620612 0.243039
v 0.063172 0.943085 -0.306683
vn 0.745502 0.620612 0.243039
v -0.070109 1.080633 -0.249092
vn 0.745502 0.620612 0.243039
v 0.329733 0.667988 -0.421865
vn 0.745502 0.620612 0.243039
v 0.196453 0.805537 -0.364274
vn 0.745502 0.620612 0.243039
v -0.205701 1.293508 -0.376758
vn 0.745502 0.620612 0.243039
v -0.338982 1.431056 -0.319167
vn 0.745502 0.620612 0.243039
v -0.072421 1.155960 -0.434350
vn 0.745502 0.620612 0.243039
v 0.060860 1.018412 -0.491941
vn 0.745502 0.620612 0.243039
v 0.194141 0.880863 -0.549532
vn 0.745502 0.620612 0.243039
v 0.327421 0.743315 -0.607123
# 36 vertices, 0 vertices normals

f 2//2 3//3 4//4
f 4//4 1//1 2//2
f 5//5 6//6 3//3
f 3//3 2//2 5//5
f 7//7 8//8 6//6
f 6//6 5//5 7//7
f 9//9 10//10 8//8
f 8//8 7//7 9//9
f 11//11 12//12 10//10
f 10//10 9//9 11//11
f 3//3 13//13 14//14
f 14//14 4//4 3//3
f 8//8 15//15 16//16
f 16//16 6//6 8//8
f 12//12 17//17 18//18
f 18//18 10//10 12//12
f 13//13 19//19 20//20
f 20//20 14//14 13//13
f 16//16 21//21 19//19
f 19//19 13//13 16//16
f 15//15 22//22 21//21
f 21//21 16//16 15//15
f 18//18 23//23 22//22
f 22//22 15//15 18//18
f 17//17 24//24 23//23
f 23//23 18//18 17//17
f 19//19 25//25 26//26
f 26//26 20//20 19//19
f 22//22 27//27 28//28
f 28//28 21//21 22//22
f 24//24 29//29 30//30
f 30//30 23//23 24//24
f 25//25 31//31 32//32
f 32//32 26//26 25//25
f 28//28 33//33 31//31
f 31//31 25//25 28//28
f 27//27 34//34 33//33
f 33//33 28//28 27//27
f 30//30 35//35 34//34
f 34//34 27//27 30//30
f 29//29 36//36 35//35
f 35//35 30//30 29//29
# 42 faces, 0 coords texture

# End of File
