####
#
# OBJ File Generated by Meshlab
#
####
# Object grid.obj
#
# Vertices: 36
# Faces: 42
#
####
mtllib material.mtl

vn -0.196361 0.620612 -0.759133
v -1.789860 1.188684 2.038823
vn -0.196361 0.620612 -0.759133
v -1.957609 0.996831 1.925369
vn -0.196361 0.620612 -0.759133
v -2.173663 1.101897 2.067149
vn -0.196361 0.620612 -0.759133
v -2.005914 1.293751 2.180603
vn -0.196361 0.620612 -0.759133
v -2.125359 0.804976 1.811913
vn -0.196361 0.620612 -0.759133
v -2.341413 0.910043 1.953694
vn -0.196361 0.620612 -0.759133
v -2.293109 0.613122 1.698458
vn -0.196361 0.620612 -0.759133
v -2.509164 0.718189 1.840238
vn -0.196361 0.620612 -0.759133
v -2.460860 0.421269 1.585005
vn -0.196361 0.620612 -0.759133
v -2.676914 0.526336 1.726785
vn -0.196361 0.620612 -0.759133
v -2.628610 0.229415 1.471549
vn -0.196361 0.620612 -0.759133
v -2.844665 0.334481 1.613330
vn -0.196361 0.620612 -0.759133
v -2.389718 1.206964 2.208929
vn -0.196361 0.620612 -0.759133
v -2.221967 1.398818 2.322384
vn -0.196361 0.620612 -0.759133
v -2.725218 0.823256 1.982020
vn -0.196361 0.620612 -0.759133
v -2.557468 1.015110 2.095474
vn -0.196361 0.620612 -0.759133
v -3.060719 0.439548 1.755109
vn -0.196361 0.620612 -0.759133
v -2.892969 0.631401 1.868565
vn -0.196361 0.620612 -0.759133
v -2.605772 1.312031 2.350709
vn -0.196361 0.620612 -0.759133
v -2.438021 1.503884 2.464164
vn -0.196361 0.620612 -0.759133
v -2.773522 1.120176 2.237254
vn -0.196361 0.620612 -0.759133
v -2.941272 0.928322 2.123800
vn -0.196361 0.620612 -0.759133
v -3.109023 0.736468 2.010345
vn -0.196361 0.620612 -0.759133
v -3.276773 0.544615 1.896890
vn -0.196361 0.620612 -0.759133
v -2.821826 1.417096 2.492489
vn -0.196361 0.620612 -0.759133
v -2.654076 1.608951 2.605944
vn -0.196361 0.620612 -0.759133
v -3.157327 1.033389 2.265580
vn -0.196361 0.620612 -0.759133
v -2.989576 1.225243 2.379036
vn -0.196361 0.620612 -0.759133
v -3.492827 0.649680 2.038671
vn -0.196361 0.620612 -0.759133
v -3.325077 0.841535 2.152125
vn -0.196361 0.620612 -0.759133
v -3.037880 1.522163 2.634269
vn -0.196361 0.620612 -0.759133
v -2.870130 1.714017 2.747724
vn -0.196361 0.620612 -0.759133
v -3.205631 1.330309 2.520816
vn -0.196361 0.620612 -0.759133
v -3.373381 1.138456 2.407361
vn -0.196361 0.620612 -0.759133
v -3.541131 0.946601 2.293905
vn -0.196361 0.620612 -0.759133
v -3.708881 0.754747 2.180451
# 36 vertices, 0 vertices normals


usemtl red
f 2//2 3//3 4//4
f 4//4 1//1 2//2
f 5//5 6//6 3//3
f 3//3 2//2 5//5
f 7//7 8//8 6//6
f 6//6 5//5 7//7
f 9//9 10//10 8//8
f 8//8 7//7 9//9
f 11//11 12//12 10//10
f 10//10 9//9 11//11
f 3//3 13//13 14//14
f 14//14 4//4 3//3
f 8//8 15//15 16//16
f 16//16 6//6 8//8
f 12//12 17//17 18//18
f 18//18 10//10 12//12
f 13//13 19//19 20//20
f 20//20 14//14 13//13
f 16//16 21//21 19//19
f 19//19 13//13 16//16
f 15//15 22//22 21//21
f 21//21 16//16 15//15
f 18//18 23//23 22//22
f 22//22 15//15 18//18
f 17//17 24//24 23//23
f 23//23 18//18 17//17
f 19//19 25//25 26//26
f 26//26 20//20 19//19
f 22//22 27//27 28//28
f 28//28 21//21 22//22
f 24//24 29//29 30//30
f 30//30 23//23 24//24
f 25//25 31//31 32//32
f 32//32 26//26 25//25
f 28//28 33//33 31//31
f 31//31 25//25 28//28
f 27//27 34//34 33//33
f 33//33 28//28 27//27
f 30//30 35//35 34//34
f 34//34 27//27 30//30
f 29//29 36//36 35//35
f 35//35 30//30 29//29
# 42 faces, 0 coords texture

# End of File
