####
#
# OBJ File Generated by Meshlab
#
####
# Object grid3.obj
#
# Vertices: 100
# Faces: 130
#
####
mtllib material.mtl
vn -0.639510 0.749200 0.172412
v 1.559115 0.044043 0.612543
vn -0.639510 0.749200 0.172412
v 1.872476 0.330967 0.528061
vn -0.639510 0.749200 0.172412
v 1.759713 0.330967 0.109800
vn -0.639510 0.749200 0.172412
v 1.446352 0.044043 0.194282
vn -0.639510 0.749200 0.172412
v 2.185844 0.617897 0.443577
vn -0.639510 0.749200 0.172412
v 2.073081 0.617897 0.025316
vn -0.639510 0.749200 0.172412
v 2.499208 0.904823 0.359095
vn -0.639510 0.749200 0.172412
v 2.386445 0.904823 -0.059167
vn -0.639510 0.749200 0.172412
v 2.812572 1.191750 0.274612
vn -0.639510 0.749200 0.172412
v 2.699809 1.191750 -0.143650
vn -0.639510 0.749200 0.172412
v 3.125937 1.478677 0.190128
vn -0.639510 0.749200 0.172412
v 3.013174 1.478677 -0.228133
vn -0.639510 0.749200 0.172412
v 3.439301 1.765604 0.105646
vn -0.639510 0.749200 0.172412
v 3.326538 1.765604 -0.312616
vn -0.639510 0.749200 0.172412
v 3.752665 2.052530 0.021163
vn -0.639510 0.749200 0.172412
v 3.639902 2.052530 -0.397098
vn -0.639510 0.749200 0.172412
v 4.066033 2.339460 -0.063321
vn -0.639510 0.749200 0.172412
v 3.953270 2.339460 -0.481582
vn -0.639510 0.749200 0.172412
v 4.379394 2.626384 -0.147803
vn -0.639510 0.749200 0.172412
v 4.266631 2.626384 -0.566064
vn -0.639510 0.749200 0.172412
v 1.646948 0.330967 -0.308470
vn -0.639510 0.749200 0.172412
v 1.333587 0.044043 -0.223988
vn -0.639510 0.749200 0.172412
v 2.273680 0.904823 -0.477436
vn -0.639510 0.749200 0.172412
v 1.960316 0.617897 -0.392954
vn -0.639510 0.749200 0.172412
v 2.900409 1.478677 -0.646402
vn -0.639510 0.749200 0.172412
v 2.587044 1.191750 -0.561919
vn -0.639510 0.749200 0.172412
v 3.527137 2.052530 -0.815368
vn -0.639510 0.749200 0.172412
v 3.213773 1.765604 -0.730885
vn -0.639510 0.749200 0.172412
v 4.153866 2.626384 -0.984334
vn -0.639510 0.749200 0.172412
v 3.840505 2.339460 -0.899852
vn -0.639510 0.749200 0.172412
v 1.534184 0.330967 -0.726735
vn -0.639510 0.749200 0.172412
v 1.220823 0.044043 -0.642252
vn -0.639510 0.749200 0.172412
v 1.847552 0.617897 -0.811218
vn -0.639510 0.749200 0.172412
v 2.160916 0.904823 -0.895701
vn -0.639510 0.749200 0.172412
v 2.474280 1.191750 -0.980184
vn -0.639510 0.749200 0.172412
v 2.787645 1.478677 -1.064667
vn -0.639510 0.749200 0.172412
v 3.101009 1.765604 -1.149150
vn -0.639510 0.749200 0.172412
v 3.414373 2.052530 -1.233633
vn -0.639510 0.749200 0.172412
v 3.727740 2.339460 -1.318117
vn -0.639510 0.749200 0.172412
v 4.041101 2.626384 -1.402599
vn -0.639510 0.749200 0.172412
v 1.421420 0.330967 -1.144999
vn -0.639510 0.749200 0.172412
v 1.108059 0.044043 -1.060517
vn -0.639510 0.749200 0.172412
v 2.048151 0.904823 -1.313966
vn -0.639510 0.749200 0.172412
v 1.734788 0.617897 -1.229483
vn -0.639510 0.749200 0.172412
v 2.674881 1.478677 -1.482932
vn -0.639510 0.749200 0.172412
v 2.361516 1.191750 -1.398449
vn -0.639510 0.749200 0.172412
v 3.301609 2.052530 -1.651898
vn -0.639510 0.749200 0.172412
v 2.988245 1.765604 -1.567415
vn -0.639510 0.749200 0.172412
v 3.928338 2.626384 -1.820864
vn -0.639510 0.749200 0.172412
v 3.614976 2.339460 -1.736382
vn -0.639510 0.749200 0.172412
v 1.308655 0.330967 -1.563265
vn -0.639510 0.749200 0.172412
v 0.995294 0.044043 -1.478783
vn -0.639510 0.749200 0.172412
v 1.622023 0.617897 -1.647749
vn -0.639510 0.749200 0.172412
v 1.935387 0.904823 -1.732232
vn -0.639510 0.749200 0.172412
v 2.248751 1.191750 -1.816715
vn -0.639510 0.749200 0.172412
v 2.562116 1.478677 -1.901198
vn -0.639510 0.749200 0.172412
v 2.875480 1.765604 -1.985681
vn -0.639510 0.749200 0.172412
v 3.188844 2.052530 -2.070164
vn -0.639510 0.749200 0.172412
v 3.502212 2.339460 -2.154648
vn -0.639510 0.749200 0.172412
v 3.815573 2.626384 -2.239130
vn -0.639510 0.749200 0.172412
v 1.195891 0.330967 -1.981530
vn -0.639510 0.749200 0.172412
v 0.882530 0.044043 -1.897048
vn -0.639510 0.749200 0.172412
v 1.822623 0.904823 -2.150497
vn -0.639510 0.749200 0.172412
v 1.509259 0.617897 -2.066014
vn -0.639510 0.749200 0.172412
v 2.449352 1.478677 -2.319463
vn -0.639510 0.749200 0.172412
v 2.135987 1.191750 -2.234980
vn -0.639510 0.749200 0.172412
v 3.076080 2.052530 -2.488429
vn -0.639510 0.749200 0.172412
v 2.762716 1.765604 -2.403946
vn -0.639510 0.749200 0.172412
v 3.702809 2.626384 -2.657395
vn -0.639510 0.749200 0.172412
v 3.389448 2.339460 -2.572913
vn -0.639510 0.749200 0.172412
v 1.083127 0.330967 -2.399795
vn -0.639510 0.749200 0.172412
v 0.769766 0.044043 -2.315313
vn -0.639510 0.749200 0.172412
v 1.396495 0.617897 -2.484279
vn -0.639510 0.749200 0.172412
v 1.709859 0.904823 -2.568762
vn -0.639510 0.749200 0.172412
v 2.023223 1.191750 -2.653244
vn -0.639510 0.749200 0.172412
v 2.336588 1.478677 -2.737728
vn -0.639510 0.749200 0.172412
v 2.649952 1.765604 -2.822211
vn -0.639510 0.749200 0.172412
v 2.963316 2.052530 -2.906693
vn -0.639510 0.749200 0.172412
v 3.276684 2.339460 -2.991177
vn -0.639510 0.749200 0.172412
v 3.590045 2.626384 -3.075659
vn -0.639510 0.749200 0.172412
v 0.970362 0.330967 -2.818065
vn -0.639510 0.749200 0.172412
v 0.657001 0.044043 -2.733582
vn -0.639510 0.749200 0.172412
v 1.597094 0.904823 -2.987031
vn -0.639510 0.749200 0.172412
v 1.283730 0.617897 -2.902549
vn -0.639510 0.749200 0.172412
v 2.223823 1.478677 -3.155998
vn -0.639510 0.749200 0.172412
v 1.910458 1.191750 -3.071514
vn -0.639510 0.749200 0.172412
v 2.850550 2.052530 -3.324963
vn -0.639510 0.749200 0.172412
v 2.537187 1.765604 -3.240480
vn -0.639510 0.749200 0.172412
v 3.477279 2.626384 -3.493929
vn -0.639510 0.749200 0.172412
v 3.163918 2.339460 -3.409447
vn -0.639510 0.749200 0.172412
v 0.857599 0.330967 -3.236326
vn -0.639510 0.749200 0.172412
v 0.544237 0.044043 -3.151844
vn -0.639510 0.749200 0.172412
v 1.170966 0.617897 -3.320810
vn -0.639510 0.749200 0.172412
v 1.484330 0.904823 -3.405293
vn -0.639510 0.749200 0.172412
v 1.797694 1.191750 -3.489776
vn -0.639510 0.749200 0.172412
v 2.111059 1.478677 -3.574259
vn -0.639510 0.749200 0.172412
v 2.424423 1.765604 -3.658741
vn -0.639510 0.749200 0.172412
v 2.737787 2.052530 -3.743225
vn -0.639510 0.749200 0.172412
v 3.051155 2.339460 -3.827708
vn -0.639510 0.749200 0.172412
v 3.364516 2.626384 -3.912190
# 100 vertices, 0 vertices normals

usemtl blue
f 2//2 3//3 4//4
f 4//4 1//1 2//2
f 5//5 6//6 3//3
f 3//3 2//2 5//5
f 7//7 8//8 6//6
f 6//6 5//5 7//7
f 9//9 10//10 8//8
f 8//8 7//7 9//9
f 11//11 12//12 10//10
f 10//10 9//9 11//11
f 13//13 14//14 12//12
f 12//12 11//11 13//13
f 15//15 16//16 14//14
f 14//14 13//13 15//15
f 17//17 18//18 16//16
f 16//16 15//15 17//17
f 19//19 20//20 18//18
f 18//18 17//17 19//19
f 3//3 21//21 22//22
f 22//22 4//4 3//3
f 8//8 23//23 24//24
f 24//24 6//6 8//8
f 12//12 25//25 26//26
f 26//26 10//10 12//12
f 16//16 27//27 28//28
f 28//28 14//14 16//16
f 20//20 29//29 30//30
f 30//30 18//18 20//20
f 21//21 31//31 32//32
f 32//32 22//22 21//21
f 24//24 33//33 31//31
f 31//31 21//21 24//24
f 23//23 34//34 33//33
f 33//33 24//24 23//23
f 26//26 35//35 34//34
f 34//34 23//23 26//26
f 25//25 36//36 35//35
f 35//35 26//26 25//25
f 28//28 37//37 36//36
f 36//36 25//25 28//28
f 27//27 38//38 37//37
f 37//37 28//28 27//27
f 30//30 39//39 38//38
f 38//38 27//27 30//30
f 29//29 40//40 39//39
f 39//39 30//30 29//29
f 31//31 41//41 42//42
f 42//42 32//32 31//31
f 34//34 43//43 44//44
f 44//44 33//33 34//34
f 36//36 45//45 46//46
f 46//46 35//35 36//36
f 38//38 47//47 48//48
f 48//48 37//37 38//38
f 40//40 49//49 50//50
f 50//50 39//39 40//40
f 41//41 51//51 52//52
f 52//52 42//42 41//41
f 44//44 53//53 51//51
f 51//51 41//41 44//44
f 43//43 54//54 53//53
f 53//53 44//44 43//43
f 46//46 55//55 54//54
f 54//54 43//43 46//46
f 45//45 56//56 55//55
f 55//55 46//46 45//45
f 48//48 57//57 56//56
f 56//56 45//45 48//48
f 47//47 58//58 57//57
f 57//57 48//48 47//47
f 50//50 59//59 58//58
f 58//58 47//47 50//50
f 49//49 60//60 59//59
f 59//59 50//50 49//49
f 51//51 61//61 62//62
f 62//62 52//52 51//51
f 54//54 63//63 64//64
f 64//64 53//53 54//54
f 56//56 65//65 66//66
f 66//66 55//55 56//56
f 58//58 67//67 68//68
f 68//68 57//57 58//58
f 60//60 69//69 70//70
f 70//70 59//59 60//60
f 61//61 71//71 72//72
f 72//72 62//62 61//61
f 64//64 73//73 71//71
f 71//71 61//61 64//64
f 63//63 74//74 73//73
f 73//73 64//64 63//63
f 66//66 75//75 74//74
f 74//74 63//63 66//66
f 65//65 76//76 75//75
f 75//75 66//66 65//65
f 68//68 77//77 76//76
f 76//76 65//65 68//68
f 67//67 78//78 77//77
f 77//77 68//68 67//67
f 70//70 79//79 78//78
f 78//78 67//67 70//70
f 69//69 80//80 79//79
f 79//79 70//70 69//69
f 71//71 81//81 82//82
f 82//82 72//72 71//71
f 74//74 83//83 84//84
f 84//84 73//73 74//74
f 76//76 85//85 86//86
f 86//86 75//75 76//76
f 78//78 87//87 88//88
f 88//88 77//77 78//78
f 80//80 89//89 90//90
f 90//90 79//79 80//80
f 81//81 91//91 92//92
f 92//92 82//82 81//81
f 84//84 93//93 91//91
f 91//91 81//81 84//84
f 83//83 94//94 93//93
f 93//93 84//84 83//83
f 86//86 95//95 94//94
f 94//94 83//83 86//86
f 85//85 96//96 95//95
f 95//95 86//86 85//85
f 88//88 97//97 96//96
f 96//96 85//85 88//88
f 87//87 98//98 97//97
f 97//97 88//88 87//87
f 90//90 99//99 98//98
f 98//98 87//87 90//90
f 89//89 100//100 99//99
f 99//99 90//90 89//89
# 130 faces, 0 coords texture

# End of File
