####
#
# OBJ File Generated by Meshlab
#
####
# Object grid2.obj
#
# Vertices: 64
# Faces: 80
#
####
mtllib material.mtl
vn -0.289479 0.858368 -0.423563
v 2.264349 1.675538 1.770575
vn -0.289479 0.858368 -0.423563
v 2.091373 1.492311 1.517477
vn -0.289479 0.858368 -0.423563
v 1.796514 1.492311 1.718995
vn -0.289479 0.858368 -0.423563
v 1.969491 1.675538 1.972093
vn -0.289479 0.858368 -0.423563
v 1.918396 1.309084 1.264380
vn -0.289479 0.858368 -0.423563
v 1.623538 1.309084 1.465898
vn -0.289479 0.858368 -0.423563
v 1.745420 1.125858 1.011282
vn -0.289479 0.858368 -0.423563
v 1.450561 1.125858 1.212800
vn -0.289479 0.858368 -0.423563
v 1.572444 0.942632 0.758186
vn -0.289479 0.858368 -0.423563
v 1.277586 0.942632 0.959704
vn -0.289479 0.858368 -0.423563
v 1.399468 0.759405 0.505088
vn -0.289479 0.858368 -0.423563
v 1.104609 0.759405 0.706606
vn -0.289479 0.858368 -0.423563
v 1.226491 0.576179 0.251991
vn -0.289479 0.858368 -0.423563
v 0.931633 0.576179 0.453509
vn -0.289479 0.858368 -0.423563
v 1.053515 0.392952 -0.001107
vn -0.289479 0.858368 -0.423563
v 0.758656 0.392952 0.200411
vn -0.289479 0.858368 -0.423563
v 1.501655 1.492311 1.920513
vn -0.289479 0.858368 -0.423563
v 1.674632 1.675538 2.173610
vn -0.289479 0.858368 -0.423563
v 1.155702 1.125858 1.414318
vn -0.289479 0.858368 -0.423563
v 1.328679 1.309084 1.667415
vn -0.289479 0.858368 -0.423563
v 0.809750 0.759405 0.908124
vn -0.289479 0.858368 -0.423563
v 0.982727 0.942632 1.161221
vn -0.289479 0.858368 -0.423563
v 0.463797 0.392952 0.401929
vn -0.289479 0.858368 -0.423563
v 0.636774 0.576179 0.655026
vn -0.289479 0.858368 -0.423563
v 1.206796 1.492311 2.122030
vn -0.289479 0.858368 -0.423563
v 1.379773 1.675538 2.375128
vn -0.289479 0.858368 -0.423563
v 1.033820 1.309084 1.868933
vn -0.289479 0.858368 -0.423563
v 0.860844 1.125858 1.615836
vn -0.289479 0.858368 -0.423563
v 0.687868 0.942632 1.362739
vn -0.289479 0.858368 -0.423563
v 0.514891 0.759405 1.109642
vn -0.289479 0.858368 -0.423563
v 0.341915 0.576179 0.856544
vn -0.289479 0.858368 -0.423563
v 0.168939 0.392952 0.603447
vn -0.289479 0.858368 -0.423563
v 0.911938 1.492311 2.323548
vn -0.289479 0.858368 -0.423563
v 1.084915 1.675538 2.576645
vn -0.289479 0.858368 -0.423563
v 0.565986 1.125858 1.817353
vn -0.289479 0.858368 -0.423563
v 0.738962 1.309084 2.070450
vn -0.289479 0.858368 -0.423563
v 0.220033 0.759405 1.311159
vn -0.289479 0.858368 -0.423563
v 0.393010 0.942632 1.564256
vn -0.289479 0.858368 -0.423563
v -0.125919 0.392952 0.804964
vn -0.289479 0.858368 -0.423563
v 0.047057 0.576179 1.058061
vn -0.289479 0.858368 -0.423563
v 0.617080 1.492311 2.525065
vn -0.289479 0.858368 -0.423563
v 0.790056 1.675538 2.778163
vn -0.289479 0.858368 -0.423563
v 0.444103 1.309084 2.271968
vn -0.289479 0.858368 -0.423563
v 0.271127 1.125858 2.018871
vn -0.289479 0.858368 -0.423563
v 0.098151 0.942632 1.765774
vn -0.289479 0.858368 -0.423563
v -0.074825 0.759405 1.512676
vn -0.289479 0.858368 -0.423563
v -0.247802 0.576179 1.259579
vn -0.289479 0.858368 -0.423563
v -0.420778 0.392952 1.006482
vn -0.289479 0.858368 -0.423563
v 0.322221 1.492311 2.726583
vn -0.289479 0.858368 -0.423563
v 0.495197 1.675538 2.979681
vn -0.289479 0.858368 -0.423563
v -0.023732 1.125858 2.220388
vn -0.289479 0.858368 -0.423563
v 0.149244 1.309084 2.473486
vn -0.289479 0.858368 -0.423563
v -0.369684 0.759405 1.714194
vn -0.289479 0.858368 -0.423563
v -0.196708 0.942632 1.967292
vn -0.289479 0.858368 -0.423563
v -0.715637 0.392952 1.207999
vn -0.289479 0.858368 -0.423563
v -0.542661 0.576179 1.461097
vn -0.289479 0.858368 -0.423563
v 0.027362 1.492311 2.928101
vn -0.289479 0.858368 -0.423563
v 0.200338 1.675538 3.181198
vn -0.289479 0.858368 -0.423563
v -0.145614 1.309084 2.675004
vn -0.289479 0.858368 -0.423563
v -0.318591 1.125858 2.421906
vn -0.289479 0.858368 -0.423563
v -0.491567 0.942632 2.168809
vn -0.289479 0.858368 -0.423563
v -0.664543 0.759405 1.915712
vn -0.289479 0.858368 -0.423563
v -0.837519 0.576179 1.662615
vn -0.289479 0.858368 -0.423563
v -1.010496 0.392952 1.409517
# 64 vertices, 0 vertices normals

usemtl green
f 2//2 3//3 4//4
f 4//4 1//1 2//2
f 5//5 6//6 3//3
f 3//3 2//2 5//5
f 7//7 8//8 6//6
f 6//6 5//5 7//7
f 9//9 10//10 8//8
f 8//8 7//7 9//9
f 11//11 12//12 10//10
f 10//10 9//9 11//11
f 13//13 14//14 12//12
f 12//12 11//11 13//13
f 15//15 16//16 14//14
f 14//14 13//13 15//15
f 3//3 17//17 18//18
f 18//18 4//4 3//3
f 8//8 19//19 20//20
f 20//20 6//6 8//8
f 12//12 21//21 22//22
f 22//22 10//10 12//12
f 16//16 23//23 24//24
f 24//24 14//14 16//16
f 17//17 25//25 26//26
f 26//26 18//18 17//17
f 20//20 27//27 25//25
f 25//25 17//17 20//20
f 19//19 28//28 27//27
f 27//27 20//20 19//19
f 22//22 29//29 28//28
f 28//28 19//19 22//22
f 21//21 30//30 29//29
f 29//29 22//22 21//21
f 24//24 31//31 30//30
f 30//30 21//21 24//24
f 23//23 32//32 31//31
f 31//31 24//24 23//23
f 25//25 33//33 34//34
f 34//34 26//26 25//25
f 28//28 35//35 36//36
f 36//36 27//27 28//28
f 30//30 37//37 38//38
f 38//38 29//29 30//30
f 32//32 39//39 40//40
f 40//40 31//31 32//32
f 33//33 41//41 42//42
f 42//42 34//34 33//33
f 36//36 43//43 41//41
f 41//41 33//33 36//36
f 35//35 44//44 43//43
f 43//43 36//36 35//35
f 38//38 45//45 44//44
f 44//44 35//35 38//38
f 37//37 46//46 45//45
f 45//45 38//38 37//37
f 40//40 47//47 46//46
f 46//46 37//37 40//40
f 39//39 48//48 47//47
f 47//47 40//40 39//39
f 41//41 49//49 50//50
f 50//50 42//42 41//41
f 44//44 51//51 52//52
f 52//52 43//43 44//44
f 46//46 53//53 54//54
f 54//54 45//45 46//46
f 48//48 55//55 56//56
f 56//56 47//47 48//48
f 49//49 57//57 58//58
f 58//58 50//50 49//49
f 52//52 59//59 57//57
f 57//57 49//49 52//52
f 51//51 60//60 59//59
f 59//59 52//52 51//51
f 54//54 61//61 60//60
f 60//60 51//51 54//54
f 53//53 62//62 61//61
f 61//61 54//54 53//53
f 56//56 63//63 62//62
f 62//62 53//53 56//56
f 55//55 64//64 63//63
f 63//63 56//56 55//55
# 80 faces, 0 coords texture

# End of File
